<mxfile host="app.diagrams.net" modified="2023-03-05T05:16:59.504Z" agent="5.0 (Windows NT 10.0; Win64; x64) AppleWebKit/537.36 (KHTML, like Gecko) Chrome/110.0.0.0 Safari/537.36" etag="kPvsG8mEwek1EOffiDzt" version="20.8.23" type="github">
  <diagram name="第 1 页" id="RqXMDDAnlUC3LQ8dVohK">
    <mxGraphModel dx="2314" dy="1148" grid="1" gridSize="10" guides="1" tooltips="1" connect="1" arrows="1" fold="1" page="1" pageScale="1" pageWidth="827" pageHeight="1169" math="0" shadow="0">
      <root>
        <mxCell id="0" />
        <mxCell id="1" parent="0" />
        <mxCell id="jRkLCCXXRkXRHQUp1MII-36" value="" style="group" vertex="1" connectable="0" parent="1">
          <mxGeometry x="660" y="490.0000000000001" width="130" height="130" as="geometry" />
        </mxCell>
        <mxCell id="jRkLCCXXRkXRHQUp1MII-17" value="" style="rounded=1;whiteSpace=wrap;html=1;shadow=0;sketch=0;strokeColor=default;strokeWidth=1;fontFamily=Times New Roman;fontSize=18;fontColor=#56517e;fillColor=#DAF3FF;container=0;movable=1;resizable=1;rotatable=1;deletable=1;editable=1;locked=0;connectable=1;" vertex="1" parent="jRkLCCXXRkXRHQUp1MII-36">
          <mxGeometry width="130" height="130" as="geometry" />
        </mxCell>
        <mxCell id="jRkLCCXXRkXRHQUp1MII-18" value="" style="group;movable=1;resizable=1;rotatable=1;deletable=1;editable=1;locked=0;connectable=1;" vertex="1" connectable="0" parent="jRkLCCXXRkXRHQUp1MII-36">
          <mxGeometry x="5" y="9.999999999999886" width="120" height="110" as="geometry" />
        </mxCell>
        <mxCell id="jRkLCCXXRkXRHQUp1MII-19" value="" style="ellipse;whiteSpace=wrap;html=1;aspect=fixed;fillColor=#9DAABD;strokeColor=none;direction=east;container=0;rounded=0;shadow=0;sketch=0;strokeWidth=2;fontFamily=Times New Roman;fontSize=18;fontColor=#56517e;movable=1;resizable=1;rotatable=1;deletable=1;editable=1;locked=0;connectable=1;" vertex="1" parent="jRkLCCXXRkXRHQUp1MII-18">
          <mxGeometry x="97.26831242411988" width="12.7350045836993" height="12.7350045836993" as="geometry" />
        </mxCell>
        <mxCell id="jRkLCCXXRkXRHQUp1MII-20" value="" style="ellipse;whiteSpace=wrap;html=1;aspect=fixed;fillColor=#9DAABD;strokeColor=none;container=0;rounded=0;shadow=0;sketch=0;strokeWidth=2;fontFamily=Times New Roman;fontSize=18;fontColor=#56517e;movable=1;resizable=1;rotatable=1;deletable=1;editable=1;locked=0;connectable=1;" vertex="1" parent="jRkLCCXXRkXRHQUp1MII-18">
          <mxGeometry x="53.055443140428906" y="55.49549549549549" width="12.7350045836993" height="12.7350045836993" as="geometry" />
        </mxCell>
        <mxCell id="jRkLCCXXRkXRHQUp1MII-21" value="" style="ellipse;whiteSpace=wrap;html=1;aspect=fixed;fillColor=#9DAABD;strokeColor=none;container=0;rounded=0;shadow=0;sketch=0;strokeWidth=2;fontFamily=Times New Roman;fontSize=18;fontColor=#56517e;movable=1;resizable=1;rotatable=1;deletable=1;editable=1;locked=0;connectable=1;" vertex="1" parent="jRkLCCXXRkXRHQUp1MII-18">
          <mxGeometry x="106.11088628085797" y="69.3693693693693" width="12.7350045836993" height="12.7350045836993" as="geometry" />
        </mxCell>
        <mxCell id="jRkLCCXXRkXRHQUp1MII-22" value="" style="ellipse;whiteSpace=wrap;html=1;aspect=fixed;fillColor=#9DAABD;strokeColor=none;container=0;rounded=0;shadow=0;sketch=0;strokeWidth=2;fontFamily=Times New Roman;fontSize=18;fontColor=#56517e;movable=1;resizable=1;rotatable=1;deletable=1;editable=1;locked=0;connectable=1;" vertex="1" parent="jRkLCCXXRkXRHQUp1MII-18">
          <mxGeometry y="20.810810810810842" width="12.7350045836993" height="12.7350045836993" as="geometry" />
        </mxCell>
        <mxCell id="jRkLCCXXRkXRHQUp1MII-23" value="" style="ellipse;whiteSpace=wrap;html=1;aspect=fixed;fillColor=#9DAABD;strokeColor=none;container=0;rounded=0;shadow=0;sketch=0;strokeWidth=2;fontFamily=Times New Roman;fontSize=18;fontColor=#56517e;movable=1;resizable=1;rotatable=1;deletable=1;editable=1;locked=0;connectable=1;" vertex="1" parent="jRkLCCXXRkXRHQUp1MII-18">
          <mxGeometry x="8.84257385673808" y="97.11711711711716" width="12.7350045836993" height="12.7350045836993" as="geometry" />
        </mxCell>
        <mxCell id="jRkLCCXXRkXRHQUp1MII-24" value="" style="ellipse;whiteSpace=wrap;html=1;aspect=fixed;fillColor=#9DAABD;strokeColor=none;container=0;rounded=0;shadow=0;sketch=0;strokeWidth=1;fontFamily=Times New Roman;fontSize=18;fontColor=#56517e;movable=1;resizable=1;rotatable=1;deletable=1;editable=1;locked=0;connectable=1;" vertex="1" parent="jRkLCCXXRkXRHQUp1MII-18">
          <mxGeometry x="44.212869283690836" width="12.7350045836993" height="12.7350045836993" as="geometry" />
        </mxCell>
        <mxCell id="jRkLCCXXRkXRHQUp1MII-25" value="" style="ellipse;whiteSpace=wrap;html=1;aspect=fixed;fillColor=#9DAABD;strokeColor=none;container=0;rounded=0;shadow=0;sketch=0;strokeWidth=1;fontFamily=Times New Roman;fontSize=18;movable=1;resizable=1;rotatable=1;deletable=1;editable=1;locked=0;connectable=1;" vertex="1" parent="jRkLCCXXRkXRHQUp1MII-18">
          <mxGeometry x="57.47673006879803" y="93.64864864864852" width="12.7350045836993" height="12.7350045836993" as="geometry" />
        </mxCell>
        <mxCell id="jRkLCCXXRkXRHQUp1MII-26" value="" style="endArrow=none;html=1;rounded=1;exitX=0.5;exitY=1;exitDx=0;exitDy=0;entryX=0.5;entryY=0;entryDx=0;entryDy=0;strokeColor=#9DAABD;movable=1;resizable=1;rotatable=1;deletable=1;editable=1;locked=0;connectable=1;" edge="1" parent="jRkLCCXXRkXRHQUp1MII-18" source="jRkLCCXXRkXRHQUp1MII-19" target="jRkLCCXXRkXRHQUp1MII-21">
          <mxGeometry width="50" height="50" relative="1" as="geometry">
            <mxPoint x="93.40192385518168" y="-113.98937398937386" as="sourcePoint" />
            <mxPoint x="156.40973757121074" y="-172.43243243243228" as="targetPoint" />
          </mxGeometry>
        </mxCell>
        <mxCell id="jRkLCCXXRkXRHQUp1MII-27" value="" style="endArrow=none;html=1;rounded=1;exitX=1;exitY=0.5;exitDx=0;exitDy=0;entryX=0;entryY=0.5;entryDx=0;entryDy=0;strokeColor=#9DAABD;movable=1;resizable=1;rotatable=1;deletable=1;editable=1;locked=0;connectable=1;" edge="1" parent="jRkLCCXXRkXRHQUp1MII-18" source="jRkLCCXXRkXRHQUp1MII-24" target="jRkLCCXXRkXRHQUp1MII-19">
          <mxGeometry width="50" height="50" relative="1" as="geometry">
            <mxPoint x="93.40192385518168" y="-113.98937398937386" as="sourcePoint" />
            <mxPoint x="156.40973757121074" y="-172.43243243243228" as="targetPoint" />
          </mxGeometry>
        </mxCell>
        <mxCell id="jRkLCCXXRkXRHQUp1MII-28" value="" style="endArrow=none;html=1;rounded=1;entryX=0;entryY=1;entryDx=0;entryDy=0;exitX=1;exitY=0;exitDx=0;exitDy=0;strokeColor=#9DAABD;movable=1;resizable=1;rotatable=1;deletable=1;editable=1;locked=0;connectable=1;" edge="1" parent="jRkLCCXXRkXRHQUp1MII-18" source="jRkLCCXXRkXRHQUp1MII-25" target="jRkLCCXXRkXRHQUp1MII-21">
          <mxGeometry width="50" height="50" relative="1" as="geometry">
            <mxPoint x="93.40192385518168" y="108.09424809424804" as="sourcePoint" />
            <mxPoint x="109.78395542134923" y="18.091938091938115" as="targetPoint" />
          </mxGeometry>
        </mxCell>
        <mxCell id="jRkLCCXXRkXRHQUp1MII-29" value="" style="endArrow=none;html=1;rounded=1;exitX=0.5;exitY=1;exitDx=0;exitDy=0;entryX=0.5;entryY=0;entryDx=0;entryDy=0;strokeColor=#9DAABD;movable=1;resizable=1;rotatable=1;deletable=1;editable=1;locked=0;connectable=1;" edge="1" parent="jRkLCCXXRkXRHQUp1MII-18" source="jRkLCCXXRkXRHQUp1MII-20" target="jRkLCCXXRkXRHQUp1MII-25">
          <mxGeometry width="50" height="50" relative="1" as="geometry">
            <mxPoint x="83.32067366061703" y="29.780549780549794" as="sourcePoint" />
            <mxPoint x="122.38551816455504" y="29.780549780549794" as="targetPoint" />
          </mxGeometry>
        </mxCell>
        <mxCell id="jRkLCCXXRkXRHQUp1MII-30" value="" style="endArrow=none;html=1;rounded=1;exitX=1;exitY=0;exitDx=0;exitDy=0;entryX=0;entryY=0.5;entryDx=0;entryDy=0;strokeColor=#9DAABD;movable=1;resizable=1;rotatable=1;deletable=1;editable=1;locked=0;connectable=1;" edge="1" parent="jRkLCCXXRkXRHQUp1MII-18" source="jRkLCCXXRkXRHQUp1MII-22" target="jRkLCCXXRkXRHQUp1MII-24">
          <mxGeometry width="50" height="50" relative="1" as="geometry">
            <mxPoint x="95.92223640382282" y="41.46916146916148" as="sourcePoint" />
            <mxPoint x="134.98708090776086" y="41.46916146916148" as="targetPoint" />
          </mxGeometry>
        </mxCell>
        <mxCell id="jRkLCCXXRkXRHQUp1MII-31" value="" style="endArrow=none;html=1;rounded=1;exitX=1;exitY=0.5;exitDx=0;exitDy=0;entryX=0;entryY=0.5;entryDx=0;entryDy=0;strokeColor=#9DAABD;movable=1;resizable=1;rotatable=1;deletable=1;editable=1;locked=0;connectable=1;" edge="1" parent="jRkLCCXXRkXRHQUp1MII-18" source="jRkLCCXXRkXRHQUp1MII-23" target="jRkLCCXXRkXRHQUp1MII-25">
          <mxGeometry width="50" height="50" relative="1" as="geometry">
            <mxPoint x="108.52379914702864" y="53.15777315777316" as="sourcePoint" />
            <mxPoint x="147.58864365096667" y="53.15777315777316" as="targetPoint" />
          </mxGeometry>
        </mxCell>
        <mxCell id="jRkLCCXXRkXRHQUp1MII-32" value="" style="endArrow=none;html=1;rounded=1;exitX=1;exitY=1;exitDx=0;exitDy=0;entryX=0;entryY=0;entryDx=0;entryDy=0;strokeColor=#9DAABD;movable=1;resizable=1;rotatable=1;deletable=1;editable=1;locked=0;connectable=1;" edge="1" parent="jRkLCCXXRkXRHQUp1MII-18" source="jRkLCCXXRkXRHQUp1MII-22" target="jRkLCCXXRkXRHQUp1MII-20">
          <mxGeometry width="50" height="50" relative="1" as="geometry">
            <mxPoint x="121.12536189023446" y="64.84638484638482" as="sourcePoint" />
            <mxPoint x="160.1902063941725" y="64.84638484638482" as="targetPoint" />
          </mxGeometry>
        </mxCell>
        <mxCell id="jRkLCCXXRkXRHQUp1MII-33" value="" style="endArrow=none;html=1;rounded=1;exitX=1;exitY=0.5;exitDx=0;exitDy=0;strokeColor=#9DAABD;movable=1;resizable=1;rotatable=1;deletable=1;editable=1;locked=0;connectable=1;" edge="1" parent="jRkLCCXXRkXRHQUp1MII-18" source="jRkLCCXXRkXRHQUp1MII-20">
          <mxGeometry width="50" height="50" relative="1" as="geometry">
            <mxPoint x="146.3284873766461" y="88.2236082236082" as="sourcePoint" />
            <mxPoint x="106.0034865983875" y="73.02841302841301" as="targetPoint" />
          </mxGeometry>
        </mxCell>
        <mxCell id="jRkLCCXXRkXRHQUp1MII-34" value="" style="endArrow=none;html=1;rounded=1;exitX=0.5;exitY=1;exitDx=0;exitDy=0;entryX=0.5;entryY=0;entryDx=0;entryDy=0;strokeColor=#9DAABD;movable=1;resizable=1;rotatable=1;deletable=1;editable=1;locked=0;connectable=1;" edge="1" parent="jRkLCCXXRkXRHQUp1MII-18" source="jRkLCCXXRkXRHQUp1MII-24" target="jRkLCCXXRkXRHQUp1MII-20">
          <mxGeometry width="50" height="50" relative="1" as="geometry">
            <mxPoint x="158.9300501198519" y="99.91221991221988" as="sourcePoint" />
            <mxPoint x="197.99489462378995" y="99.91221991221988" as="targetPoint" />
          </mxGeometry>
        </mxCell>
        <mxCell id="jRkLCCXXRkXRHQUp1MII-35" value="" style="endArrow=none;html=1;rounded=1;exitX=1;exitY=0;exitDx=0;exitDy=0;entryX=0;entryY=1;entryDx=0;entryDy=0;strokeColor=#9DAABD;movable=1;resizable=1;rotatable=1;deletable=1;editable=1;locked=0;connectable=1;" edge="1" parent="jRkLCCXXRkXRHQUp1MII-18" source="jRkLCCXXRkXRHQUp1MII-20" target="jRkLCCXXRkXRHQUp1MII-19">
          <mxGeometry width="50" height="50" relative="1" as="geometry">
            <mxPoint x="171.53161286305775" y="111.60083160083155" as="sourcePoint" />
            <mxPoint x="210.59645736699576" y="111.60083160083155" as="targetPoint" />
          </mxGeometry>
        </mxCell>
        <mxCell id="jRkLCCXXRkXRHQUp1MII-37" value="" style="group" vertex="1" connectable="0" parent="1">
          <mxGeometry x="130" y="450" width="220" height="230" as="geometry" />
        </mxCell>
        <mxCell id="jRkLCCXXRkXRHQUp1MII-1" value="" style="rounded=1;whiteSpace=wrap;html=1;shadow=0;sketch=0;strokeColor=default;strokeWidth=1;fontFamily=Times New Roman;fontSize=18;fontColor=#56517e;fillColor=#F0EDFF;movable=1;resizable=1;rotatable=1;deletable=1;editable=1;locked=0;connectable=1;" vertex="1" parent="jRkLCCXXRkXRHQUp1MII-37">
          <mxGeometry width="220" height="230" as="geometry" />
        </mxCell>
        <mxCell id="jRkLCCXXRkXRHQUp1MII-2" value="" style="group;movable=1;resizable=1;rotatable=1;deletable=1;editable=1;locked=0;connectable=1;" vertex="1" connectable="0" parent="jRkLCCXXRkXRHQUp1MII-37">
          <mxGeometry x="15" y="10" width="190" height="210" as="geometry" />
        </mxCell>
        <mxCell id="jRkLCCXXRkXRHQUp1MII-3" value="" style="ellipse;whiteSpace=wrap;html=1;aspect=fixed;fillColor=#e1d5e7;strokeColor=none;direction=east;container=0;rounded=0;shadow=0;sketch=0;strokeWidth=2;fontFamily=Times New Roman;fontSize=18;fontColor=#56517e;movable=1;resizable=1;rotatable=1;deletable=1;editable=1;locked=0;connectable=1;" vertex="1" parent="jRkLCCXXRkXRHQUp1MII-2">
          <mxGeometry x="142.5" y="21" width="21" height="21" as="geometry" />
        </mxCell>
        <mxCell id="jRkLCCXXRkXRHQUp1MII-4" value="" style="ellipse;whiteSpace=wrap;html=1;aspect=fixed;fillColor=#fad7ac;strokeColor=none;container=0;rounded=0;shadow=0;sketch=0;strokeWidth=2;fontFamily=Times New Roman;fontSize=18;fontColor=#56517e;movable=1;resizable=1;rotatable=1;deletable=1;editable=1;locked=0;connectable=1;" vertex="1" parent="jRkLCCXXRkXRHQUp1MII-2">
          <mxGeometry x="83.125" y="105" width="21" height="21" as="geometry" />
        </mxCell>
        <mxCell id="jRkLCCXXRkXRHQUp1MII-5" value="" style="ellipse;whiteSpace=wrap;html=1;aspect=fixed;fillColor=#bac8d3;strokeColor=none;container=0;rounded=0;shadow=0;sketch=0;strokeWidth=2;fontFamily=Times New Roman;fontSize=18;fontColor=#56517e;movable=1;resizable=1;rotatable=1;deletable=1;editable=1;locked=0;connectable=1;" vertex="1" parent="jRkLCCXXRkXRHQUp1MII-2">
          <mxGeometry x="154.375" y="126" width="21" height="21" as="geometry" />
        </mxCell>
        <mxCell id="jRkLCCXXRkXRHQUp1MII-6" value="" style="ellipse;whiteSpace=wrap;html=1;aspect=fixed;fillColor=#fad9d5;strokeColor=none;container=0;rounded=0;shadow=0;sketch=0;strokeWidth=2;fontFamily=Times New Roman;fontSize=18;fontColor=#56517e;movable=1;resizable=1;rotatable=1;deletable=1;editable=1;locked=0;connectable=1;" vertex="1" parent="jRkLCCXXRkXRHQUp1MII-2">
          <mxGeometry x="11.875" y="52.5" width="21" height="21" as="geometry" />
        </mxCell>
        <mxCell id="jRkLCCXXRkXRHQUp1MII-7" value="" style="ellipse;whiteSpace=wrap;html=1;aspect=fixed;fillColor=#b0e3e6;strokeColor=none;container=0;rounded=0;shadow=0;sketch=0;strokeWidth=2;fontFamily=Times New Roman;fontSize=18;fontColor=#56517e;movable=1;resizable=1;rotatable=1;deletable=1;editable=1;locked=0;connectable=1;" vertex="1" parent="jRkLCCXXRkXRHQUp1MII-2">
          <mxGeometry x="23.75" y="168" width="21" height="21" as="geometry" />
        </mxCell>
        <mxCell id="jRkLCCXXRkXRHQUp1MII-8" value="&lt;span style=&quot;font-size: 14px;&quot;&gt;v&lt;sub&gt;1&lt;/sub&gt;&lt;/span&gt;" style="text;strokeColor=none;align=center;fillColor=none;html=1;verticalAlign=middle;whiteSpace=wrap;rounded=0;fontSize=18;fontFamily=Times New Roman;fontColor=#56517e;container=0;movable=1;resizable=1;rotatable=1;deletable=1;editable=1;locked=0;connectable=1;" vertex="1" parent="jRkLCCXXRkXRHQUp1MII-2">
          <mxGeometry x="71.25" y="84" width="47.5" height="21" as="geometry" />
        </mxCell>
        <mxCell id="jRkLCCXXRkXRHQUp1MII-9" value="&lt;font style=&quot;font-size: 14px;&quot;&gt;v&lt;sub style=&quot;&quot;&gt;2&lt;/sub&gt;&lt;/font&gt;" style="text;strokeColor=none;align=center;fillColor=none;html=1;verticalAlign=middle;whiteSpace=wrap;rounded=0;fontSize=18;fontFamily=Times New Roman;fontColor=#56517e;container=0;movable=1;resizable=1;rotatable=1;deletable=1;editable=1;locked=0;connectable=1;" vertex="1" parent="jRkLCCXXRkXRHQUp1MII-2">
          <mxGeometry x="130.625" width="47.5" height="21" as="geometry" />
        </mxCell>
        <mxCell id="jRkLCCXXRkXRHQUp1MII-10" value="&lt;font style=&quot;font-size: 14px;&quot;&gt;v&lt;sub style=&quot;&quot;&gt;5&lt;/sub&gt;&lt;/font&gt;" style="text;strokeColor=none;align=center;fillColor=none;html=1;verticalAlign=middle;whiteSpace=wrap;rounded=0;fontSize=18;fontFamily=Times New Roman;fontColor=#56517e;container=0;movable=1;resizable=1;rotatable=1;deletable=1;editable=1;locked=0;connectable=1;" vertex="1" parent="jRkLCCXXRkXRHQUp1MII-2">
          <mxGeometry y="31.5" width="47.5" height="21" as="geometry" />
        </mxCell>
        <mxCell id="jRkLCCXXRkXRHQUp1MII-11" value="&lt;font style=&quot;font-size: 14px;&quot;&gt;v&lt;sub style=&quot;&quot;&gt;4&lt;/sub&gt;&lt;/font&gt;" style="text;strokeColor=none;align=center;fillColor=none;html=1;verticalAlign=middle;whiteSpace=wrap;rounded=0;fontSize=18;fontFamily=Times New Roman;fontColor=#56517e;container=0;movable=1;resizable=1;rotatable=1;deletable=1;editable=1;locked=0;connectable=1;" vertex="1" parent="jRkLCCXXRkXRHQUp1MII-2">
          <mxGeometry x="11.875" y="189" width="47.5" height="21" as="geometry" />
        </mxCell>
        <mxCell id="jRkLCCXXRkXRHQUp1MII-12" value="&lt;font style=&quot;font-size: 14px;&quot;&gt;v&lt;sub style=&quot;&quot;&gt;3&lt;/sub&gt;&lt;/font&gt;" style="text;strokeColor=none;align=center;fillColor=none;html=1;verticalAlign=middle;whiteSpace=wrap;rounded=0;fontSize=18;fontFamily=Times New Roman;fontColor=#56517e;container=0;movable=1;resizable=1;rotatable=1;deletable=1;editable=1;locked=0;connectable=1;" vertex="1" parent="jRkLCCXXRkXRHQUp1MII-2">
          <mxGeometry x="142.5" y="141.75" width="47.5" height="21" as="geometry" />
        </mxCell>
        <mxCell id="jRkLCCXXRkXRHQUp1MII-13" value="" style="ellipse;whiteSpace=wrap;html=1;aspect=fixed;fillColor=#B9E0A5;strokeColor=#00CC00;container=0;rounded=0;shadow=0;sketch=0;strokeWidth=1;fontFamily=Times New Roman;fontSize=18;fontColor=#56517e;movable=1;resizable=1;rotatable=1;deletable=1;editable=1;locked=0;connectable=1;" vertex="1" parent="jRkLCCXXRkXRHQUp1MII-2">
          <mxGeometry x="71.25" y="21" width="21" height="21" as="geometry" />
        </mxCell>
        <mxCell id="jRkLCCXXRkXRHQUp1MII-14" value="" style="ellipse;whiteSpace=wrap;html=1;aspect=fixed;fillColor=#CEC28B;strokeColor=#666600;container=0;rounded=0;shadow=0;sketch=0;strokeWidth=1;fontFamily=Times New Roman;fontSize=18;movable=1;resizable=1;rotatable=1;deletable=1;editable=1;locked=0;connectable=1;" vertex="1" parent="jRkLCCXXRkXRHQUp1MII-2">
          <mxGeometry x="89.0625" y="162.75" width="21" height="21" as="geometry" />
        </mxCell>
        <mxCell id="jRkLCCXXRkXRHQUp1MII-15" value="&lt;font style=&quot;font-size: 14px;&quot;&gt;v&lt;sub style=&quot;&quot;&gt;6&lt;/sub&gt;&lt;/font&gt;" style="text;strokeColor=none;align=center;fillColor=none;html=1;verticalAlign=middle;whiteSpace=wrap;rounded=0;fontSize=18;fontFamily=Times New Roman;fontColor=#56517e;container=0;movable=1;resizable=1;rotatable=1;deletable=1;editable=1;locked=0;connectable=1;" vertex="1" parent="jRkLCCXXRkXRHQUp1MII-2">
          <mxGeometry x="59.375" width="47.5" height="21" as="geometry" />
        </mxCell>
        <mxCell id="jRkLCCXXRkXRHQUp1MII-16" value="&lt;font style=&quot;font-size: 14px;&quot;&gt;v&lt;sub style=&quot;&quot;&gt;7&lt;/sub&gt;&lt;/font&gt;" style="text;strokeColor=none;align=center;fillColor=none;html=1;verticalAlign=middle;whiteSpace=wrap;rounded=0;fontSize=18;fontFamily=Times New Roman;fontColor=#56517e;container=0;movable=1;resizable=1;rotatable=1;deletable=1;editable=1;locked=0;connectable=1;" vertex="1" parent="jRkLCCXXRkXRHQUp1MII-2">
          <mxGeometry x="77.1875" y="183.75" width="47.5" height="21" as="geometry" />
        </mxCell>
      </root>
    </mxGraphModel>
  </diagram>
</mxfile>
